<mxfile host="65bd71144e">
    <diagram id="RncjQm0wCgIGD3a5Y6RU" name="第 1 页">
        <mxGraphModel dx="784" dy="518" grid="1" gridSize="10" guides="1" tooltips="1" connect="1" arrows="1" fold="1" page="1" pageScale="1" pageWidth="827" pageHeight="1169" math="0" shadow="0">
            <root>
                <mxCell id="0"/>
                <mxCell id="1" parent="0"/>
                <mxCell id="3" value="" style="rounded=0;whiteSpace=wrap;html=1;fillColor=#60a917;strokeColor=#2D7600;fontColor=#ffffff;" parent="1" vertex="1">
                    <mxGeometry x="80" y="121" width="180" height="300" as="geometry"/>
                </mxCell>
                <mxCell id="5" value="&lt;font color=&quot;#000000&quot; style=&quot;font-size: 15px&quot;&gt;Client&lt;br&gt;客户端功能&lt;/font&gt;" style="rounded=1;whiteSpace=wrap;html=1;fillColor=#1ba1e2;strokeColor=#006EAF;fontColor=#ffffff;" parent="1" vertex="1">
                    <mxGeometry x="110" y="131" width="120" height="60" as="geometry"/>
                </mxCell>
                <mxCell id="6" value="&lt;font style=&quot;font-size: 15px&quot;&gt;客户端stub&lt;/font&gt;" style="rounded=1;whiteSpace=wrap;html=1;fillColor=#e3c800;strokeColor=#B09500;fontColor=#000000;" parent="1" vertex="1">
                    <mxGeometry x="110" y="241" width="120" height="60" as="geometry"/>
                </mxCell>
                <mxCell id="7" value="&lt;font style=&quot;font-size: 15px&quot; color=&quot;#000000&quot;&gt;socket&lt;/font&gt;" style="rounded=1;whiteSpace=wrap;html=1;fillColor=#b1ddf0;strokeColor=#10739e;" parent="1" vertex="1">
                    <mxGeometry x="110" y="351" width="120" height="60" as="geometry"/>
                </mxCell>
                <mxCell id="9" value="" style="rounded=0;whiteSpace=wrap;html=1;fillColor=#60a917;strokeColor=#2D7600;fontColor=#ffffff;" parent="1" vertex="1">
                    <mxGeometry x="360" y="121" width="180" height="300" as="geometry"/>
                </mxCell>
                <mxCell id="10" value="&lt;font color=&quot;#000000&quot; style=&quot;font-size: 15px&quot;&gt;Server&lt;br&gt;服务端端功能&lt;/font&gt;" style="rounded=1;whiteSpace=wrap;html=1;fillColor=#1ba1e2;strokeColor=#006EAF;fontColor=#ffffff;" parent="1" vertex="1">
                    <mxGeometry x="390" y="131" width="120" height="60" as="geometry"/>
                </mxCell>
                <mxCell id="11" value="&lt;font style=&quot;font-size: 15px&quot;&gt;客户端stub&lt;/font&gt;" style="rounded=1;whiteSpace=wrap;html=1;fillColor=#e3c800;strokeColor=#B09500;fontColor=#000000;" parent="1" vertex="1">
                    <mxGeometry x="390" y="241" width="120" height="60" as="geometry"/>
                </mxCell>
                <mxCell id="12" value="&lt;font style=&quot;font-size: 15px&quot; color=&quot;#000000&quot;&gt;socket&lt;/font&gt;" style="rounded=1;whiteSpace=wrap;html=1;fillColor=#b1ddf0;strokeColor=#10739e;" parent="1" vertex="1">
                    <mxGeometry x="390" y="351" width="120" height="60" as="geometry"/>
                </mxCell>
                <mxCell id="13" value="" style="shape=flexArrow;endArrow=classic;html=1;exitX=0.75;exitY=0;exitDx=0;exitDy=0;entryX=0.75;entryY=1;entryDx=0;entryDy=0;" parent="1" source="6" target="5" edge="1">
                    <mxGeometry width="50" height="50" relative="1" as="geometry">
                        <mxPoint x="220" y="231" as="sourcePoint"/>
                        <mxPoint x="270" y="181" as="targetPoint"/>
                    </mxGeometry>
                </mxCell>
                <mxCell id="14" value="" style="shape=flexArrow;endArrow=classic;html=1;exitX=0.25;exitY=1;exitDx=0;exitDy=0;entryX=0.25;entryY=0;entryDx=0;entryDy=0;" parent="1" source="5" target="6" edge="1">
                    <mxGeometry width="50" height="50" relative="1" as="geometry">
                        <mxPoint x="210" y="251" as="sourcePoint"/>
                        <mxPoint x="210" y="201" as="targetPoint"/>
                    </mxGeometry>
                </mxCell>
                <mxCell id="15" value="" style="shape=flexArrow;endArrow=classic;html=1;exitX=0.75;exitY=0;exitDx=0;exitDy=0;entryX=0.75;entryY=1;entryDx=0;entryDy=0;" parent="1" edge="1">
                    <mxGeometry width="50" height="50" relative="1" as="geometry">
                        <mxPoint x="200" y="351" as="sourcePoint"/>
                        <mxPoint x="200" y="301" as="targetPoint"/>
                    </mxGeometry>
                </mxCell>
                <mxCell id="16" value="" style="shape=flexArrow;endArrow=classic;html=1;exitX=0.25;exitY=1;exitDx=0;exitDy=0;entryX=0.25;entryY=0;entryDx=0;entryDy=0;" parent="1" edge="1">
                    <mxGeometry width="50" height="50" relative="1" as="geometry">
                        <mxPoint x="140" y="301" as="sourcePoint"/>
                        <mxPoint x="140" y="351" as="targetPoint"/>
                    </mxGeometry>
                </mxCell>
                <mxCell id="17" value="" style="shape=flexArrow;endArrow=classic;html=1;exitX=0.75;exitY=0;exitDx=0;exitDy=0;entryX=0.75;entryY=1;entryDx=0;entryDy=0;" parent="1" edge="1">
                    <mxGeometry width="50" height="50" relative="1" as="geometry">
                        <mxPoint x="480" y="241" as="sourcePoint"/>
                        <mxPoint x="480" y="191" as="targetPoint"/>
                    </mxGeometry>
                </mxCell>
                <mxCell id="18" value="" style="shape=flexArrow;endArrow=classic;html=1;exitX=0.25;exitY=1;exitDx=0;exitDy=0;entryX=0.25;entryY=0;entryDx=0;entryDy=0;" parent="1" edge="1">
                    <mxGeometry width="50" height="50" relative="1" as="geometry">
                        <mxPoint x="420" y="191" as="sourcePoint"/>
                        <mxPoint x="420" y="241" as="targetPoint"/>
                    </mxGeometry>
                </mxCell>
                <mxCell id="19" value="" style="shape=flexArrow;endArrow=classic;html=1;exitX=0.75;exitY=0;exitDx=0;exitDy=0;entryX=0.75;entryY=1;entryDx=0;entryDy=0;" parent="1" edge="1">
                    <mxGeometry width="50" height="50" relative="1" as="geometry">
                        <mxPoint x="480" y="351" as="sourcePoint"/>
                        <mxPoint x="480" y="301" as="targetPoint"/>
                    </mxGeometry>
                </mxCell>
                <mxCell id="20" value="" style="shape=flexArrow;endArrow=classic;html=1;exitX=0.25;exitY=1;exitDx=0;exitDy=0;entryX=0.25;entryY=0;entryDx=0;entryDy=0;" parent="1" edge="1">
                    <mxGeometry width="50" height="50" relative="1" as="geometry">
                        <mxPoint x="420" y="301" as="sourcePoint"/>
                        <mxPoint x="420" y="351" as="targetPoint"/>
                    </mxGeometry>
                </mxCell>
                <mxCell id="21" value="" style="endArrow=classic;html=1;exitX=1;exitY=0.25;exitDx=0;exitDy=0;entryX=0;entryY=0.25;entryDx=0;entryDy=0;strokeWidth=2;strokeColor=#FFFFFF;" parent="1" source="7" target="12" edge="1">
                    <mxGeometry width="50" height="50" relative="1" as="geometry">
                        <mxPoint x="380" y="361" as="sourcePoint"/>
                        <mxPoint x="430" y="311" as="targetPoint"/>
                    </mxGeometry>
                </mxCell>
                <mxCell id="22" value="" style="endArrow=classic;html=1;exitX=0;exitY=0.75;exitDx=0;exitDy=0;entryX=1;entryY=0.75;entryDx=0;entryDy=0;strokeWidth=2;strokeColor=#FFFFFF;" parent="1" source="12" target="7" edge="1">
                    <mxGeometry width="50" height="50" relative="1" as="geometry">
                        <mxPoint x="240" y="376" as="sourcePoint"/>
                        <mxPoint x="430" y="376" as="targetPoint"/>
                    </mxGeometry>
                </mxCell>
                <mxCell id="23" value="" style="endArrow=none;dashed=1;html=1;strokeWidth=2;entryX=1;entryY=0.68;entryDx=0;entryDy=0;entryPerimeter=0;strokeColor=#000000;" parent="1" edge="1">
                    <mxGeometry width="50" height="50" relative="1" as="geometry">
                        <mxPoint x="81" y="327" as="sourcePoint"/>
                        <mxPoint x="261" y="326" as="targetPoint"/>
                    </mxGeometry>
                </mxCell>
                <mxCell id="24" value="" style="endArrow=none;dashed=1;html=1;strokeWidth=2;entryX=1;entryY=0.68;entryDx=0;entryDy=0;entryPerimeter=0;strokeColor=#000000;" parent="1" edge="1">
                    <mxGeometry width="50" height="50" relative="1" as="geometry">
                        <mxPoint x="361" y="327" as="sourcePoint"/>
                        <mxPoint x="541" y="326" as="targetPoint"/>
                    </mxGeometry>
                </mxCell>
            </root>
        </mxGraphModel>
    </diagram>
    <diagram id="L7YzSnron0W9VLYE4n_Q" name="第 2 页">
        <mxGraphModel dx="784" dy="518" grid="1" gridSize="10" guides="1" tooltips="1" connect="1" arrows="1" fold="1" page="1" pageScale="1" pageWidth="827" pageHeight="1169" math="0" shadow="0">
            <root>
                <mxCell id="EK3unO18E5m2U9efcPQV-0"/>
                <mxCell id="EK3unO18E5m2U9efcPQV-1" parent="EK3unO18E5m2U9efcPQV-0"/>
                <mxCell id="EK3unO18E5m2U9efcPQV-42" value="" style="group" parent="EK3unO18E5m2U9efcPQV-1" vertex="1" connectable="0">
                    <mxGeometry x="99" width="630" height="460" as="geometry"/>
                </mxCell>
                <mxCell id="EK3unO18E5m2U9efcPQV-4" value="" style="group" parent="EK3unO18E5m2U9efcPQV-42" vertex="1" connectable="0">
                    <mxGeometry width="210" height="71" as="geometry"/>
                </mxCell>
                <mxCell id="EK3unO18E5m2U9efcPQV-2" value="&lt;font style=&quot;font-size: 13px&quot;&gt;hello(){&lt;br&gt;&amp;nbsp; &amp;nbsp; String s = B.hi(new User(&quot;DJ&quot;))&lt;br&gt;}&lt;/font&gt;" style="rounded=0;whiteSpace=wrap;html=1;align=left;" parent="EK3unO18E5m2U9efcPQV-4" vertex="1">
                    <mxGeometry y="21" width="210" height="50" as="geometry"/>
                </mxCell>
                <mxCell id="EK3unO18E5m2U9efcPQV-3" value="&lt;font style=&quot;font-size: 15px&quot;&gt;&lt;b&gt;A&lt;/b&gt;&lt;/font&gt;" style="text;html=1;align=center;verticalAlign=middle;resizable=0;points=[];autosize=1;strokeColor=none;" parent="EK3unO18E5m2U9efcPQV-4" vertex="1">
                    <mxGeometry x="85" width="30" height="20" as="geometry"/>
                </mxCell>
                <mxCell id="EK3unO18E5m2U9efcPQV-5" value="" style="group" parent="EK3unO18E5m2U9efcPQV-42" vertex="1" connectable="0">
                    <mxGeometry x="400" width="230" height="71" as="geometry"/>
                </mxCell>
                <mxCell id="EK3unO18E5m2U9efcPQV-6" value="&lt;font style=&quot;font-size: 13px&quot;&gt;String hi(user){&lt;br&gt;&amp;nbsp; &amp;nbsp; return &quot;Hello：&quot;+user.getUsername()&lt;br&gt;}&lt;br&gt;&lt;/font&gt;" style="rounded=0;whiteSpace=wrap;html=1;align=left;" parent="EK3unO18E5m2U9efcPQV-5" vertex="1">
                    <mxGeometry y="21" width="230" height="50" as="geometry"/>
                </mxCell>
                <mxCell id="EK3unO18E5m2U9efcPQV-7" value="&lt;font style=&quot;font-size: 15px&quot;&gt;&lt;b&gt;B&lt;/b&gt;&lt;/font&gt;" style="text;html=1;align=center;verticalAlign=middle;resizable=0;points=[];autosize=1;strokeColor=none;" parent="EK3unO18E5m2U9efcPQV-5" vertex="1">
                    <mxGeometry x="85" width="30" height="20" as="geometry"/>
                </mxCell>
                <mxCell id="EK3unO18E5m2U9efcPQV-9" value="" style="endArrow=none;html=1;strokeWidth=10;fillColor=#fad7ac;strokeColor=#b46504;" parent="EK3unO18E5m2U9efcPQV-42" edge="1">
                    <mxGeometry width="50" height="50" relative="1" as="geometry">
                        <mxPoint x="105" y="480" as="sourcePoint"/>
                        <mxPoint x="104.5" y="120" as="targetPoint"/>
                        <Array as="points">
                            <mxPoint x="104.5" y="270"/>
                        </Array>
                    </mxGeometry>
                </mxCell>
                <mxCell id="EK3unO18E5m2U9efcPQV-10" value="" style="endArrow=none;html=1;strokeWidth=10;fillColor=#b0e3e6;strokeColor=#0e8088;" parent="EK3unO18E5m2U9efcPQV-42" edge="1">
                    <mxGeometry width="50" height="50" relative="1" as="geometry">
                        <mxPoint x="230" y="480" as="sourcePoint"/>
                        <mxPoint x="230" y="120" as="targetPoint"/>
                        <Array as="points">
                            <mxPoint x="230" y="270"/>
                        </Array>
                    </mxGeometry>
                </mxCell>
                <mxCell id="EK3unO18E5m2U9efcPQV-11" value="" style="endArrow=none;html=1;strokeWidth=10;fillColor=#fad9d5;strokeColor=#ae4132;" parent="EK3unO18E5m2U9efcPQV-42" edge="1">
                    <mxGeometry width="50" height="50" relative="1" as="geometry">
                        <mxPoint x="353" y="450" as="sourcePoint"/>
                        <mxPoint x="353" y="150" as="targetPoint"/>
                        <Array as="points">
                            <mxPoint x="353" y="300"/>
                        </Array>
                    </mxGeometry>
                </mxCell>
                <mxCell id="EK3unO18E5m2U9efcPQV-12" value="" style="endArrow=none;html=1;strokeWidth=10;fillColor=#d5e8d4;strokeColor=#82b366;gradientColor=#97d077;" parent="EK3unO18E5m2U9efcPQV-42" edge="1">
                    <mxGeometry width="50" height="50" relative="1" as="geometry">
                        <mxPoint x="490" y="420" as="sourcePoint"/>
                        <mxPoint x="490" y="250" as="targetPoint"/>
                        <Array as="points"/>
                    </mxGeometry>
                </mxCell>
                <mxCell id="EK3unO18E5m2U9efcPQV-13" value="&lt;b&gt;&lt;font style=&quot;font-size: 15px&quot;&gt;Client&lt;/font&gt;&lt;/b&gt;" style="text;html=1;align=center;verticalAlign=middle;resizable=0;points=[];autosize=1;strokeColor=none;" parent="EK3unO18E5m2U9efcPQV-42" vertex="1">
                    <mxGeometry x="70" y="90" width="60" height="20" as="geometry"/>
                </mxCell>
                <mxCell id="EK3unO18E5m2U9efcPQV-15" value="" style="endArrow=classic;html=1;strokeColor=#f0f0f0;strokeWidth=2;" parent="EK3unO18E5m2U9efcPQV-42" edge="1">
                    <mxGeometry width="50" height="50" relative="1" as="geometry">
                        <mxPoint x="110" y="140" as="sourcePoint"/>
                        <mxPoint x="220" y="140" as="targetPoint"/>
                    </mxGeometry>
                </mxCell>
                <mxCell id="EK3unO18E5m2U9efcPQV-16" value="1.客户端调用" style="text;html=1;align=center;verticalAlign=middle;resizable=0;points=[];autosize=1;strokeColor=none;" parent="EK3unO18E5m2U9efcPQV-42" vertex="1">
                    <mxGeometry x="120" y="120" width="90" height="20" as="geometry"/>
                </mxCell>
                <mxCell id="EK3unO18E5m2U9efcPQV-17" value="&lt;b&gt;&lt;font style=&quot;font-size: 15px&quot;&gt;Client Stub&lt;/font&gt;&lt;/b&gt;" style="text;html=1;align=center;verticalAlign=middle;resizable=0;points=[];autosize=1;strokeColor=none;" parent="EK3unO18E5m2U9efcPQV-42" vertex="1">
                    <mxGeometry x="175" y="90" width="90" height="20" as="geometry"/>
                </mxCell>
                <mxCell id="EK3unO18E5m2U9efcPQV-18" value="" style="curved=1;endArrow=classic;html=1;strokeColor=#f0f0f0;strokeWidth=2;" parent="EK3unO18E5m2U9efcPQV-42" edge="1">
                    <mxGeometry width="50" height="50" relative="1" as="geometry">
                        <mxPoint x="236" y="160" as="sourcePoint"/>
                        <mxPoint x="236" y="180" as="targetPoint"/>
                        <Array as="points">
                            <mxPoint x="286" y="160"/>
                            <mxPoint x="296" y="170"/>
                            <mxPoint x="286" y="180"/>
                        </Array>
                    </mxGeometry>
                </mxCell>
                <mxCell id="EK3unO18E5m2U9efcPQV-19" value="2.序列化" style="text;html=1;align=center;verticalAlign=middle;resizable=0;points=[];autosize=1;strokeColor=none;" parent="EK3unO18E5m2U9efcPQV-42" vertex="1">
                    <mxGeometry x="231" y="140" width="60" height="20" as="geometry"/>
                </mxCell>
                <mxCell id="EK3unO18E5m2U9efcPQV-20" value="" style="endArrow=classic;html=1;strokeColor=#f0f0f0;strokeWidth=2;" parent="EK3unO18E5m2U9efcPQV-42" edge="1">
                    <mxGeometry width="50" height="50" relative="1" as="geometry">
                        <mxPoint x="231" y="200" as="sourcePoint"/>
                        <mxPoint x="351" y="200" as="targetPoint"/>
                    </mxGeometry>
                </mxCell>
                <mxCell id="EK3unO18E5m2U9efcPQV-21" value="3.发送信息" style="text;html=1;align=center;verticalAlign=middle;resizable=0;points=[];autosize=1;strokeColor=none;" parent="EK3unO18E5m2U9efcPQV-42" vertex="1">
                    <mxGeometry x="250" y="200" width="70" height="20" as="geometry"/>
                </mxCell>
                <mxCell id="EK3unO18E5m2U9efcPQV-22" value="" style="curved=1;endArrow=classic;html=1;strokeColor=#f0f0f0;strokeWidth=2;" parent="EK3unO18E5m2U9efcPQV-42" edge="1">
                    <mxGeometry width="50" height="50" relative="1" as="geometry">
                        <mxPoint x="496" y="290" as="sourcePoint"/>
                        <mxPoint x="496" y="310" as="targetPoint"/>
                        <Array as="points">
                            <mxPoint x="546" y="290"/>
                            <mxPoint x="556" y="300"/>
                            <mxPoint x="546" y="310"/>
                        </Array>
                    </mxGeometry>
                </mxCell>
                <mxCell id="EK3unO18E5m2U9efcPQV-24" value="4.反序列化" style="text;html=1;align=center;verticalAlign=middle;resizable=0;points=[];autosize=1;strokeColor=none;" parent="EK3unO18E5m2U9efcPQV-42" vertex="1">
                    <mxGeometry x="354" y="190" width="70" height="20" as="geometry"/>
                </mxCell>
                <mxCell id="EK3unO18E5m2U9efcPQV-25" value="" style="endArrow=classic;html=1;strokeColor=#f0f0f0;strokeWidth=2;" parent="EK3unO18E5m2U9efcPQV-42" edge="1">
                    <mxGeometry width="50" height="50" relative="1" as="geometry">
                        <mxPoint x="360" y="270" as="sourcePoint"/>
                        <mxPoint x="480" y="270" as="targetPoint"/>
                    </mxGeometry>
                </mxCell>
                <mxCell id="EK3unO18E5m2U9efcPQV-26" value="5.调用本地服务" style="text;html=1;align=center;verticalAlign=middle;resizable=0;points=[];autosize=1;strokeColor=none;" parent="EK3unO18E5m2U9efcPQV-42" vertex="1">
                    <mxGeometry x="370" y="250" width="100" height="20" as="geometry"/>
                </mxCell>
                <mxCell id="EK3unO18E5m2U9efcPQV-27" value="&lt;b&gt;&lt;font style=&quot;font-size: 15px&quot;&gt;Server Stub&lt;/font&gt;&lt;/b&gt;" style="text;html=1;align=center;verticalAlign=middle;resizable=0;points=[];autosize=1;strokeColor=none;" parent="EK3unO18E5m2U9efcPQV-42" vertex="1">
                    <mxGeometry x="305" y="90" width="100" height="20" as="geometry"/>
                </mxCell>
                <mxCell id="EK3unO18E5m2U9efcPQV-28" value="&lt;b&gt;&lt;font style=&quot;font-size: 15px&quot;&gt;Server&lt;/font&gt;&lt;/b&gt;" style="text;html=1;align=center;verticalAlign=middle;resizable=0;points=[];autosize=1;strokeColor=none;" parent="EK3unO18E5m2U9efcPQV-42" vertex="1">
                    <mxGeometry x="460" y="90" width="60" height="20" as="geometry"/>
                </mxCell>
                <mxCell id="EK3unO18E5m2U9efcPQV-29" value="" style="curved=1;endArrow=classic;html=1;strokeColor=#f0f0f0;strokeWidth=2;" parent="EK3unO18E5m2U9efcPQV-42" edge="1">
                    <mxGeometry width="50" height="50" relative="1" as="geometry">
                        <mxPoint x="359" y="356" as="sourcePoint"/>
                        <mxPoint x="359" y="376" as="targetPoint"/>
                        <Array as="points">
                            <mxPoint x="409" y="356"/>
                            <mxPoint x="419" y="366"/>
                            <mxPoint x="409" y="376"/>
                        </Array>
                    </mxGeometry>
                </mxCell>
                <mxCell id="EK3unO18E5m2U9efcPQV-30" value="6.服务处理" style="text;html=1;align=center;verticalAlign=middle;resizable=0;points=[];autosize=1;strokeColor=none;" parent="EK3unO18E5m2U9efcPQV-42" vertex="1">
                    <mxGeometry x="560" y="290" width="70" height="20" as="geometry"/>
                </mxCell>
                <mxCell id="EK3unO18E5m2U9efcPQV-32" value="" style="endArrow=classic;html=1;strokeColor=#f0f0f0;strokeWidth=2;dashed=1;" parent="EK3unO18E5m2U9efcPQV-42" edge="1">
                    <mxGeometry width="50" height="50" relative="1" as="geometry">
                        <mxPoint x="480" y="336" as="sourcePoint"/>
                        <mxPoint x="360" y="336" as="targetPoint"/>
                    </mxGeometry>
                </mxCell>
                <mxCell id="EK3unO18E5m2U9efcPQV-33" value="7.返回处理结果" style="text;html=1;align=center;verticalAlign=middle;resizable=0;points=[];autosize=1;strokeColor=none;" parent="EK3unO18E5m2U9efcPQV-42" vertex="1">
                    <mxGeometry x="365" y="316" width="100" height="20" as="geometry"/>
                </mxCell>
                <mxCell id="EK3unO18E5m2U9efcPQV-34" value="" style="curved=1;endArrow=classic;html=1;strokeColor=#f0f0f0;strokeWidth=2;" parent="EK3unO18E5m2U9efcPQV-42" edge="1">
                    <mxGeometry width="50" height="50" relative="1" as="geometry">
                        <mxPoint x="359" y="210" as="sourcePoint"/>
                        <mxPoint x="359" y="230" as="targetPoint"/>
                        <Array as="points">
                            <mxPoint x="409" y="210"/>
                            <mxPoint x="419" y="220"/>
                            <mxPoint x="409" y="230"/>
                        </Array>
                    </mxGeometry>
                </mxCell>
                <mxCell id="EK3unO18E5m2U9efcPQV-35" value="8.结果序列化" style="text;html=1;align=center;verticalAlign=middle;resizable=0;points=[];autosize=1;strokeColor=none;" parent="EK3unO18E5m2U9efcPQV-42" vertex="1">
                    <mxGeometry x="380" y="376" width="90" height="20" as="geometry"/>
                </mxCell>
                <mxCell id="EK3unO18E5m2U9efcPQV-36" value="" style="endArrow=classic;html=1;strokeColor=#f0f0f0;strokeWidth=2;dashed=1;" parent="EK3unO18E5m2U9efcPQV-42" edge="1">
                    <mxGeometry width="50" height="50" relative="1" as="geometry">
                        <mxPoint x="350" y="400" as="sourcePoint"/>
                        <mxPoint x="234" y="400" as="targetPoint"/>
                    </mxGeometry>
                </mxCell>
                <mxCell id="EK3unO18E5m2U9efcPQV-37" value="9.返回消息" style="text;html=1;align=center;verticalAlign=middle;resizable=0;points=[];autosize=1;strokeColor=none;" parent="EK3unO18E5m2U9efcPQV-42" vertex="1">
                    <mxGeometry x="250" y="380" width="70" height="20" as="geometry"/>
                </mxCell>
                <mxCell id="EK3unO18E5m2U9efcPQV-38" value="" style="curved=1;endArrow=classic;html=1;strokeColor=#f0f0f0;strokeWidth=2;" parent="EK3unO18E5m2U9efcPQV-42" edge="1">
                    <mxGeometry width="50" height="50" relative="1" as="geometry">
                        <mxPoint x="236" y="411" as="sourcePoint"/>
                        <mxPoint x="236" y="431" as="targetPoint"/>
                        <Array as="points">
                            <mxPoint x="286" y="411"/>
                            <mxPoint x="296" y="421"/>
                            <mxPoint x="286" y="431"/>
                        </Array>
                    </mxGeometry>
                </mxCell>
                <mxCell id="EK3unO18E5m2U9efcPQV-39" value="10.反序列化" style="text;html=1;align=center;verticalAlign=middle;resizable=0;points=[];autosize=1;strokeColor=none;" parent="EK3unO18E5m2U9efcPQV-42" vertex="1">
                    <mxGeometry x="245" y="430" width="80" height="20" as="geometry"/>
                </mxCell>
                <mxCell id="EK3unO18E5m2U9efcPQV-40" value="" style="endArrow=classic;html=1;strokeColor=#f0f0f0;strokeWidth=2;dashed=1;" parent="EK3unO18E5m2U9efcPQV-42" edge="1">
                    <mxGeometry width="50" height="50" relative="1" as="geometry">
                        <mxPoint x="225" y="460" as="sourcePoint"/>
                        <mxPoint x="105" y="460" as="targetPoint"/>
                    </mxGeometry>
                </mxCell>
                <mxCell id="EK3unO18E5m2U9efcPQV-41" value="11.返回调用结果" style="text;html=1;align=center;verticalAlign=middle;resizable=0;points=[];autosize=1;strokeColor=none;" parent="EK3unO18E5m2U9efcPQV-42" vertex="1">
                    <mxGeometry x="115" y="440" width="100" height="20" as="geometry"/>
                </mxCell>
                <mxCell id="EK3unO18E5m2U9efcPQV-44" value="" style="endArrow=none;dashed=1;html=1;dashPattern=1 3;strokeWidth=2;" parent="EK3unO18E5m2U9efcPQV-42" edge="1">
                    <mxGeometry width="50" height="50" relative="1" as="geometry">
                        <mxPoint x="353" y="149" as="sourcePoint"/>
                        <mxPoint x="353" y="114" as="targetPoint"/>
                    </mxGeometry>
                </mxCell>
                <mxCell id="EK3unO18E5m2U9efcPQV-43" value="" style="endArrow=none;dashed=1;html=1;dashPattern=1 3;strokeWidth=2;entryX=0.517;entryY=1.05;entryDx=0;entryDy=0;entryPerimeter=0;" parent="EK3unO18E5m2U9efcPQV-1" target="EK3unO18E5m2U9efcPQV-28" edge="1">
                    <mxGeometry width="50" height="50" relative="1" as="geometry">
                        <mxPoint x="590" y="250" as="sourcePoint"/>
                        <mxPoint x="430" y="240" as="targetPoint"/>
                    </mxGeometry>
                </mxCell>
            </root>
        </mxGraphModel>
    </diagram>
    <diagram id="-r-GL_WucGYuS8ijHjTZ" name="第 3 页">
        <mxGraphModel dx="784" dy="518" grid="1" gridSize="10" guides="1" tooltips="1" connect="1" arrows="1" fold="1" page="1" pageScale="1" pageWidth="827" pageHeight="1169" math="0" shadow="0">
            <root>
                <mxCell id="gqu0fWGyP3Etop8ZGJVT-0"/>
                <mxCell id="gqu0fWGyP3Etop8ZGJVT-1" parent="gqu0fWGyP3Etop8ZGJVT-0"/>
            </root>
        </mxGraphModel>
    </diagram>
</mxfile>